<?xml version="1.0" standalone="no"?><svg xmlns="http://www.w3.org/2000/svg" viewBox="0 0 1440 320"><path fill="#CFE2FF" fill-opacity="1" d="M0,96L8.3,96C16.6,96,33,96,50,122.7C66.2,149,83,203,99,213.3C115.9,224,132,192,149,192C165.5,192,182,224,199,229.3C215.2,235,232,213,248,192C264.8,171,281,149,298,165.3C314.5,181,331,235,348,245.3C364.1,256,381,224,397,208C413.8,192,430,192,447,165.3C463.4,139,480,85,497,96C513.1,107,530,181,546,202.7C562.8,224,579,192,596,197.3C612.4,203,629,245,646,250.7C662.1,256,679,224,695,218.7C711.7,213,728,235,745,224C761.4,213,778,171,794,144C811,117,828,107,844,85.3C860.7,64,877,32,894,42.7C910.3,53,927,107,943,133.3C960,160,977,160,993,165.3C1009.7,171,1026,181,1043,186.7C1059.3,192,1076,192,1092,170.7C1109,149,1126,107,1142,96C1158.6,85,1175,107,1192,96C1208.3,85,1225,43,1241,64C1257.9,85,1274,171,1291,186.7C1307.6,203,1324,149,1341,160C1357.2,171,1374,245,1390,256C1406.9,267,1423,213,1432,186.7L1440,160L1440,320L1431.7,320C1423.4,320,1407,320,1390,320C1373.8,320,1357,320,1341,320C1324.1,320,1308,320,1291,320C1274.5,320,1258,320,1241,320C1224.8,320,1208,320,1192,320C1175.2,320,1159,320,1142,320C1125.5,320,1109,320,1092,320C1075.9,320,1059,320,1043,320C1026.2,320,1010,320,993,320C976.6,320,960,320,943,320C926.9,320,910,320,894,320C877.2,320,861,320,844,320C827.6,320,811,320,794,320C777.9,320,761,320,745,320C728.3,320,712,320,695,320C678.6,320,662,320,646,320C629,320,612,320,596,320C579.3,320,563,320,546,320C529.7,320,513,320,497,320C480,320,463,320,447,320C430.3,320,414,320,397,320C380.7,320,364,320,348,320C331,320,314,320,298,320C281.4,320,265,320,248,320C231.7,320,215,320,199,320C182.1,320,166,320,149,320C132.4,320,116,320,99,320C82.8,320,66,320,50,320C33.1,320,17,320,8,320L0,320Z"></path></svg>